<?xml version="1.0" encoding="utf-8"?>
<!-- Generator: Adobe Illustrator 24.0.1, SVG Export Plug-In . SVG Version: 6.00 Build 0)  -->
<svg version="1.1" id="Calque_1" xmlns="http://www.w3.org/2000/svg" xmlns:xlink="http://www.w3.org/1999/xlink" x="0px" y="0px"
	 viewBox="0 0 833 398" style="enable-background:new 0 0 833 398;" xml:space="preserve">
<style type="text/css">
	.st0{fill:none;stroke:#000000;stroke-width:8;stroke-miterlimit:10;}
	.st1{fill-rule:evenodd;clip-rule:evenodd;fill:#04F900;}
	.st2{fill-rule:evenodd;clip-rule:evenodd;}
	.st3{fill:#04F900;stroke:#000000;stroke-width:8;stroke-miterlimit:10;}
	.st4{fill:#0875E1;}
	.st5{font-family:'BritannicBold';}
	.st6{font-size:114.4006px;}
</style>
<g>
	<line class="st0" x1="183" y1="56" x2="183" y2="-121"/>
	<line class="st1" x1="183" y1="56" x2="183" y2="-121"/>
</g>
<g>
	<path class="st0" d="M356-121.5H179H356z"/>
	<path class="st1" d="M356-121.5H179H356z"/>
</g>
<g>
	<path class="st0" d="M352,55v-177V55z"/>
	<path class="st1" d="M352,55v-177V55z"/>
</g>
<g>
	<line class="st0" x1="183" y1="52" x2="6" y2="52"/>
	<line class="st1" x1="183" y1="52" x2="6" y2="52"/>
</g>
<g>
	<line class="st0" x1="10" y1="229" x2="10" y2="52"/>
	<line class="st2" x1="10" y1="229" x2="10" y2="52"/>
</g>
<g>
	<line class="st0" x1="187" y1="225" x2="10" y2="225"/>
	<line class="st1" x1="187" y1="225" x2="10" y2="225"/>
</g>
<g>
	<line class="st0" x1="183" y1="402" x2="183" y2="225"/>
	<line class="st1" x1="183" y1="402" x2="183" y2="225"/>
</g>
<g>
	<line class="st0" x1="360" y1="398" x2="183" y2="398"/>
	<line class="st1" x1="360" y1="398" x2="183" y2="398"/>
</g>
<g>
	<line class="st0" x1="356" y1="398" x2="356" y2="221"/>
	<line class="st1" x1="356" y1="398" x2="356" y2="221"/>
</g>
<line class="st3" x1="358" y1="225" x2="424" y2="225"/>
<line class="st3" x1="419" y1="225" x2="448.5" y2="301.5"/>
<line class="st3" x1="448" y1="300" x2="482.5" y2="28.5"/>
<line class="st3" x1="482.5" y1="29.5" x2="538.5" y2="491.5"/>
<line class="st3" x1="538.5" y1="491.5" x2="592.5" y2="229.5"/>
<line class="st0" x1="591" y1="233" x2="813" y2="232.5"/>
<text transform="matrix(0.8641 0 0 1 590.6143 220.7539)" class="st4 st5 st6">PLUS</text>
<polygon style="fill-rule:evenodd;clip-rule:evenodd;fill:none;" points="186.5,731.2 184.2,731.2 184.2,731.2 186.5,731.2 "/>
</svg>
