<?xml version="1.0" encoding="utf-8"?>
<!-- Generator: Adobe Illustrator 24.0.1, SVG Export Plug-In . SVG Version: 6.00 Build 0)  -->
<svg version="1.1" id="Calque_1" xmlns="http://www.w3.org/2000/svg" xmlns:xlink="http://www.w3.org/1999/xlink" x="0px" y="0px"
	 viewBox="0 0 1048.9 580.6" style="enable-background:new 0 0 1048.9 580.6;" xml:space="preserve">
<style type="text/css">
	.st0{fill:none;stroke:#000000;stroke-width:8;stroke-miterlimit:10;}
	.st1{fill:none;}
	.st2{fill:#0875E1;}
	.st3{font-family:'BritannicBold';}
	.st4{font-size:114.4006px;}
	.st5{fill:#0875E1;stroke:#000000;stroke-width:8;stroke-miterlimit:10;}
	.st6{fill:#0875E1;stroke:#000000;stroke-miterlimit:10;}
	.st7{fill:none;stroke:#020202;stroke-width:8;stroke-miterlimit:10;}
	.st8{fill:none;stroke:#020202;stroke-miterlimit:10;}
	.st9{fill:#00B332;stroke:#000000;stroke-width:8;stroke-miterlimit:10;}
</style>
<g>
	<line class="st0" x1="4.1" y1="139.4" x2="4.1" y2="267.5"/>
	<line class="st1" x1="4.1" y1="139.4" x2="4.1" y2="267.5"/>
</g>
<text transform="matrix(0.8641 0 0 1 800.1061 257.1131)" class="st2 st3 st4">PLUS</text>
<polygon class="st1" points="103.3,877.5 101,877.5 101,877.5 "/>
<g>
	<line class="st0" x1="128.2" y1="139.4" x2="0" y2="139.4"/>
	<line class="st1" x1="128.2" y1="139.4" x2="0" y2="139.4"/>
</g>
<g>
	<line class="st0" x1="132.2" y1="263.7" x2="4.1" y2="263.7"/>
	<line class="st1" x1="132.2" y1="263.7" x2="4.1" y2="263.7"/>
</g>
<g>
	<line class="st0" x1="124" y1="11.2" x2="124.1" y2="139.4"/>
	<line class="st1" x1="124" y1="11.2" x2="124.1" y2="139.4"/>
</g>
<g>
	<line class="st0" x1="252.2" y1="15.2" x2="124.1" y2="15.2"/>
	<line class="st1" x1="252.2" y1="15.2" x2="124.1" y2="15.2"/>
</g>
<g>
	<line class="st0" x1="248.2" y1="15.2" x2="248.3" y2="143.4"/>
	<line class="st1" x1="248.2" y1="15.2" x2="248.3" y2="143.4"/>
</g>
<g>
	<line class="st0" x1="128.2" y1="263.8" x2="128.3" y2="391.9"/>
	<line class="st1" x1="128.2" y1="263.8" x2="128.3" y2="391.9"/>
</g>
<g>
	<line class="st0" x1="256.4" y1="387.9" x2="128.3" y2="387.9"/>
	<line class="st1" x1="256.4" y1="387.9" x2="128.3" y2="387.9"/>
</g>
<g>
	<line class="st0" x1="252.3" y1="259.8" x2="252.4" y2="387.9"/>
	<line class="st1" x1="252.3" y1="259.8" x2="252.4" y2="387.9"/>
</g>
<g>
	<line class="st5" x1="369.1" y1="263.7" x2="248.2" y2="263.7"/>
	<line class="st6" x1="369.1" y1="263.7" x2="248.2" y2="263.7"/>
</g>
<g>
	<line class="st7" x1="464.8" y1="263.8" x2="369.1" y2="263.8"/>
	<line class="st8" x1="464.8" y1="263.8" x2="369.1" y2="263.8"/>
</g>
<line class="st0" x1="460.5" y1="261.7" x2="516.2" y2="402.6"/>
<line class="st9" x1="515.9" y1="400.3" x2="614.2" y2="29.4"/>
<line class="st0" x1="613.7" y1="33.6" x2="688.9" y2="572.9"/>
<line class="st0" x1="688.5" y1="570.2" x2="790.6" y2="263.7"/>
<line class="st0" x1="787" y1="266.6" x2="1040.9" y2="266.6"/>
</svg>
