<?xml version="1.0" encoding="utf-8"?>
<!-- Generator: Adobe Illustrator 24.0.1, SVG Export Plug-In . SVG Version: 6.00 Build 0)  -->
<svg version="1.1" id="Calque_1" xmlns="http://www.w3.org/2000/svg" xmlns:xlink="http://www.w3.org/1999/xlink" x="0px" y="0px"
	 viewBox="0 0 259.2 259.2" style="enable-background:new 0 0 259.2 259.2;" xml:space="preserve">
<style type="text/css">
	.st0{fill:#011627;}
</style>
<g id="Layer_x0020_1">
	<g id="_2744492859776">
		<path class="st0" d="M210.6,158.6v96.2c0,2.4-2.2,4.4-4.9,4.4H53.4c-2.6,0-4.7-1.9-4.7-4.3v-96.3c0-0.1-0.1-0.1-0.1-0.1H12.2
			c-2.6,0-5.1-2-5.1-4.3c0-1.3,0.7-2.4,1.6-3.2l114-106.9c1.9-1.8,4.8-1.8,6.7-0.1L250.7,151c1.9,1.7,1.9,4.4,0.1,6.1
			c-0.9,0.8-2.2,1.3-3.4,1.3L210.6,158.6C210.6,158.4,210.6,158.5,210.6,158.6z M100.5,250.5C100.6,250.5,100.6,250.4,100.5,250.5
			l0.1-61.7c0-2.4,2.2-4.3,4.7-4.3v-0.1h48.2c2.7,0,4.9,2,4.9,4.4v0.3l0.1,61.3c0,0.1,0.1,0.1,0.1,0.1h42.3c0.1,0,0.1-0.1,0.1-0.1
			v-96.2c0-2.4,2.2-4.4,4.9-4.4h29.5c0.1,0,0.2-0.1-0.5-0.7L125.7,52.8c0.6,0.5,0.5,0.5,0.4,0.5L23.2,149.6c-0.1,0.1,0,0.2,0.1,0.2
			h30c2.7,0,4.9,2,4.9,4.4v96.2c0,0.1,0.1,0.1,0.1,0.1H100.5 M149,250.5C149.1,250.5,149.1,250.4,149,250.5l-0.1-57.3
			c0-0.1-0.1-0.1-0.1-0.1h-38.6c-0.1,0-0.1,0.1-0.1,0.1l-0.1,57.2 M110,250.4C110,250.5,110.1,250.5,110,250.4l38.9,0.1"/>
	</g>
</g>
</svg>
