<?xml version="1.0" encoding="utf-8"?>
<!-- Generator: Adobe Illustrator 24.0.1, SVG Export Plug-In . SVG Version: 6.00 Build 0)  -->
<svg version="1.1" id="Calque_1" xmlns="http://www.w3.org/2000/svg" xmlns:xlink="http://www.w3.org/1999/xlink" x="0px" y="0px"
	 viewBox="0 0 600 976" style="enable-background:new 0 0 600 976;" xml:space="preserve">
<style type="text/css">
	.st0{fill:#77ECFD;}
	.st1{fill-opacity:7.450981e-02;}
	.st2{fill:#FFAD53;}
	.st3{fill:#26785F;}
	.st4{fill:#2AAF86;}
	.st5{fill:#C97A23;fill-opacity:0.1608;}
	.st6{fill:#C97A23;}
	.st7{fill:#AFA396;}
	.st8{fill:#4A2700;fill-opacity:0.1176;}
	.st9{fill:#4A2700;fill-opacity:6.666667e-02;}
</style>
<g id="layer1">
	<g>
		<path class="st0" d="M300.6,15.4C162.9,17.6,45.7,63.6-51,153.6c-95.7,94.1-144.3,205.5-145.7,334.3
			c2.3,131,50.8,242.4,145.5,334.3c97.3,90.1,213.8,136.2,349.5,138.4c137.7-1.8,255.1-47.6,352-137.3
			c96-93.9,144.9-205.2,146.7-333.9c-1.9-131-50.1-242.6-144.5-334.7C555.4,64.3,439.1,17.9,303.4,15.4"/>
	</g>
	<g>
		<path class="st1" d="M472.6,186c-75.8,188.7-138.1,314.7-187.1,378.1C237.9,632,160.7,695.4,54,754.5l-8.9,67.7L278.2,960h0.1
			c6.6,0.3,13.3,0.5,20.1,0.6c137.7-1.8,255.1-47.6,352-137.3c96-93.9,144.9-205.2,146.7-333.9c-1.1-74.7-17.2-143.1-48.4-205.2h0.1
			l-275.6-96.5L472.6,186z"/>
	</g>
	<g>
		<g>
			<path class="st2" d="M30,441.9l14.7,367.3l1,0L576,790l-14.2-355.9l-0.5-11.5L31,441.9"/>
		</g>
		<g>
			<g>
				<path class="st3" d="M466.9,190.8c0.5-3.9,0.8-6.1,0.8-6.1c-0.4-0.2-48.7-6.9-107.4-14.8l-106.8-14.5l-31.1,204.5l-31,204.5
					L299,579.1l107.6,14.7l30.8-204.3C451.8,294,463.9,213.1,466.9,190.8z M414.5,250.4l-20.1,132.9l-20.1,133L414.5,250.4z
					 M276.2,368.1c0-0.1,0-0.1,0-0.2c0-0.1,0-0.1,0-0.2L276.2,368.1z M285.3,233.2l-40.1,265.6l20-132.9L285.3,233.2z"/>
			</g>
			<g>
				<path class="st3" d="M474.3,182.8c-0.4-0.2-48.7-6.9-107.4-14.8l-106.8-14.5L228.9,358l-31,204.5l107.6,14.7l107.6,14.7
					L444,387.6C461,275.2,474.6,183.1,474.3,182.8z M375.8,514.6c-10.5,0.4-18.7,4.3-25.2,12.1c-2.4,2.9-4.1,6-5,8.8
					c-0.6,2.4-1.7,4.5-2.1,4.7c-1.8,0.8-62.8-7.6-63.5-8.7c-0.3-0.5-0.5-2.8-0.5-5.1c0.1-5.3-3.6-14.3-7.5-18.7
					c-4.2-4.4-10.2-8.2-15.7-9.7l-4.5-1.2l20-132.9l20-132.8l5.8-0.3c3.2-0.1,7.3-0.8,9.2-1.3c8.6-2.8,17.7-11.2,20.1-18.7
					c0.5-1.8,1.3-4,1.7-4.9l0.6-1.8l31.9,4.4c35.6,4.9,32.1,3.6,32.2,11.1c0.1,5.4,2.6,11.6,6.7,16.9c4.4,5.6,12.8,10.9,18.5,11.6
					l2.5,0.3L401,381.4l-20.1,132.9L375.8,514.6z"/>
			</g>
			<g>
				<path class="st3" d="M390.6,371c-0.4-9.4-4-19.6-9.6-27.3c-5.5-7.4-11.1-12.1-19.7-16.7c-5.9-3.2-7.4-3.5-17.3-4.9
					c-9.6-1.3-11.5-1.3-17.6-0.1c-13.2,2.6-24.2,8.9-32.1,18.1c-14.9,17.4-16.1,43.3-2.9,61.5c15.5,21.3,43.8,28.7,68,17.8
					C378.8,410.8,391.5,391,390.6,371z"/>
			</g>
			<g>
				<path class="st4" d="M390.1,379.8c-2.5,16.8-14.2,32.3-30.7,39.7c-24.1,10.9-52.5,3.5-68-17.8c-7.7-10.6-10.5-23.7-8.6-36.3
					c1.4-9.1,5.2-17.9,11.5-25.2c7.9-9.2,18.9-15.5,32.1-18.1c6.1-1.3,7.9-1.3,17.6,0.1c9.9,1.4,11.3,1.7,17.3,4.9
					c8.6,4.5,14.2,9.2,19.7,16.7c5.6,7.7,9.2,17.9,9.6,27.3C390.7,373.9,390.6,376.9,390.1,379.8z M421,248.5l-2.5-0.3
					c-5.8-0.8-14.1-6-18.5-11.6c-4.1-5.2-6.6-11.5-6.7-16.9c0-7.4,3.5-6.2-32.2-11.1l-31.9-4.4l-0.6,1.8c-0.4,1-1.2,3.2-1.7,4.9
					c-2.4,7.4-11.5,15.8-20.1,18.7c-1.8,0.6-6,1.2-9.2,1.3l-5.8,0.3l-40.1,265.6l4.5,1.2c5.5,1.5,11.5,5.3,15.7,9.7
					c4,4.4,7.7,13.3,7.5,18.7c0,2.3,0.3,4.6,0.5,5.1c0.7,1.1,61.7,9.4,63.5,8.7c0.5-0.2,1.5-2.3,2.1-4.7c0.9-2.8,2.7-5.9,5-8.8
					c6.5-7.8,14.7-11.7,25.2-12.1l5.1-0.2L421,248.5z"/>
			</g>
		</g>
		<g>
			<g>
				<path class="st3" d="M227.4,175.9c-1.6-3.7-2.5-5.6-2.5-5.7c-0.5,0-45.8,17.2-100.8,38.3L23.9,246.8l80.5,191.9L185,630.6
					L286,592.1l100.9-38.5L306.2,362C268.5,272.5,236.4,196.7,227.4,175.9z M213.3,252.5l52.5,124.7l52.5,124.7L213.3,252.5z
					 M155.4,420.2c0-0.1-0.1-0.1-0.1-0.2c0-0.1-0.1-0.1-0.1-0.2L155.4,420.2z M92.3,299.1l104.9,249.1l-52.5-124.6L92.3,299.1z"/>
			</g>
			<g>
				<path class="st3" d="M229.5,165.5c-0.5,0-45.8,17.2-100.8,38.3L28.6,242l80.5,191.9l80.6,191.9l100.9-38.5l100.9-38.5
					l-80.7-191.6C266.5,251.9,229.9,165.6,229.5,165.5z M318.6,499.7c-8.9,5.4-13.9,12.6-15.5,22.5c-0.5,3.6-0.5,7.1,0.3,10
					c0.7,2.4,1,4.7,0.7,5.1c-1.1,1.5-58.3,23.3-59.5,22.7c-0.5-0.3-2-2.2-3.1-4.1c-2.7-4.7-10.6-10.7-16.3-12.6
					c-5.9-1.8-13.1-2.2-18.7-0.9l-4.5,1.1l-52.5-124.6L97,294.3l4.9-3c2.7-1.6,5.9-4.1,7.2-5.5c6-6.5,9.4-18.1,7.6-25.7
					c-0.5-1.8-1-4.1-1.1-5.1l-0.4-1.9l29.9-11.4c33.4-12.7,29.7-12.1,33.7-5.7c2.9,4.6,8.3,8.9,14.7,11.4c6.8,2.8,16.8,3.3,22.2,1.3
					l2.3-0.9l52.5,124.7l52.5,124.7L318.6,499.7z"/>
			</g>
			<g>
				<path class="st3" d="M256,368.3c-5.3-8-13.8-15.1-22.7-19.1c-8.6-3.8-16-5.2-25.8-5c-6.8,0.1-8.2,0.5-17.5,4
					c-9,3.4-10.6,4.3-15.2,8.3c-10.1,8.6-16.3,19.2-18.3,30.9c-3.8,22.2,8.8,45.1,29.8,54.6c24.6,11,53.1,4,68.2-16.9
					C266.7,408.4,267.2,385.2,256,368.3z"/>
			</g>
			<g>
				<path class="st4" d="M260.2,376.1c6.6,15.8,4.7,34.7-5.7,49c-15.2,20.9-43.6,27.9-68.2,16.9c-12.2-5.5-21.6-15.5-26.5-27.3
					c-3.6-8.5-4.9-18-3.3-27.3c2-11.7,8.2-22.4,18.3-30.9c4.6-4,6.2-4.9,15.2-8.3c9.3-3.5,10.7-3.9,17.5-4c9.9-0.2,17.2,1.2,25.8,5
					c8.9,4,17.3,11.1,22.7,19.1C257.6,370.8,259,373.4,260.2,376.1z M217.9,247.7l-2.3,0.9c-5.4,2.1-15.4,1.5-22.2-1.3
					c-6.3-2.6-11.8-6.8-14.7-11.4c-3.9-6.4-0.2-7-33.7,5.7L115.2,253l0.4,1.9c0.1,1,0.6,3.3,1.1,5.1c1.8,7.6-1.7,19.2-7.6,25.7
					c-1.3,1.4-4.5,3.9-7.2,5.5l-4.9,3l104.9,249.1l4.5-1.1c5.5-1.3,12.7-0.9,18.7,0.9c5.8,1.9,13.6,7.9,16.3,12.6
					c1.2,2,2.6,3.8,3.1,4.1c1.2,0.6,58.4-21.2,59.5-22.7c0.3-0.4,0.1-2.7-0.7-5.1c-0.7-2.8-0.8-6.4-0.3-10
					c1.6-9.9,6.6-17.1,15.5-22.5l4.3-2.6L217.9,247.7z"/>
			</g>
		</g>
		<g>
			<path class="st2" d="M30.5,455.2l14.7,367.3l1,0l530.3-19.2L561.8,436L30.5,455.2"/>
		</g>
		<g>
			<path class="st5" d="M87.1,495.7l11.3,282.4l0.8,0l420.8-15.2l-11.3-282.4L87.1,495.7"/>
		</g>
		<g>
			<path class="st6" d="M463.6,570.8l3.4,86.3l0.2,0l102.5-3.7l-3.4-86.3L463.6,570.8"/>
		</g>
		<g>
			<path class="st7" d="M498.2,583.2c-7.7,0.6-14.1,3.6-19.2,8.9c-5,5.5-7.3,11.9-6.9,19.3c0.6,7.3,3.7,13.4,9.4,18.3
				c5.7,4.7,12.5,6.9,20.2,6.6c7.7-0.6,14.1-3.5,19.2-8.9c5-5.5,7.3-11.9,7-19.3c-0.6-7.3-3.7-13.4-9.4-18.3
				C512.8,585.1,506,582.9,498.2,583.2"/>
		</g>
		<g>
			<path class="st8" d="M30,441.9l14.7,367.3l0.5,13.3l31.7-1.1L61.6,440.8L30,441.9z"/>
		</g>
		<g>
			<path class="st9" d="M466,612.5l1.8,45l24.4-0.9l81.5-2.9l-1.8-45L466,612.5z"/>
		</g>
	</g>
</g>
</svg>
