<?xml version="1.0" encoding="utf-8"?>
<!-- Generator: Adobe Illustrator 24.0.1, SVG Export Plug-In . SVG Version: 6.00 Build 0)  -->
<svg version="1.1" id="Calque_1" xmlns="http://www.w3.org/2000/svg" xmlns:xlink="http://www.w3.org/1999/xlink" x="0px" y="0px"
	 viewBox="0 0 38.1 38.1" style="enable-background:new 0 0 38.1 38.1;" xml:space="preserve">
<style type="text/css">
	.st0{fill:#77ECFD;}
	.st1{fill-opacity:7.450981e-02;}
	.st2{fill:#FFAD53;}
	.st3{fill:#26785F;}
	.st4{fill:#2AAF86;}
	.st5{fill:#C97A23;fill-opacity:0.1608;}
	.st6{fill:#C97A23;}
	.st7{fill:#AFA396;}
	.st8{fill:#4A2700;fill-opacity:0.1176;}
	.st9{fill:#4A2700;fill-opacity:6.666667e-02;}
</style>
<g id="layer1">
	<g>
		<path class="st0" d="M19.1,0C13.8,0.1,9.3,1.9,5.6,5.6C1.9,9.4,0.1,13.9,0,19c0.1,5.3,1.9,9.8,5.6,13.5c3.7,3.6,8.2,5.5,13.4,5.6
			c5.3-0.1,9.8-1.9,13.5-5.5c3.7-3.8,5.6-8.3,5.6-13.5c-0.1-5.3-1.9-9.8-5.5-13.5C28.8,2,24.4,0.1,19.2,0"/>
	</g>
	<g>
		<path class="st1" d="M25.7,6.9c-2.9,7.6-5.3,12.7-7.2,15.2c-1.8,2.7-4.8,5.3-8.9,7.7l-0.3,2.7l8.9,5.6h0c0.3,0,0.5,0,0.8,0
			c5.3-0.1,9.8-1.9,13.5-5.5c3.7-3.8,5.6-8.3,5.6-13.5c0-3-0.7-5.8-1.9-8.3h0L25.7,6.9L25.7,6.9z"/>
	</g>
	<g>
		<g>
			<path class="st2" d="M8.7,17.2L9.3,32l0,0l20.3-0.8l-0.5-14.3l0-0.5L8.7,17.2"/>
		</g>
		<g>
			<g>
				<path class="st3" d="M25.4,7.1c0-0.2,0-0.2,0-0.2c0,0-1.9-0.3-4.1-0.6l-4.1-0.6l-1.2,8.2l-1.2,8.2l4.1,0.6l4.1,0.6l1.2-8.2
					C24.9,11.2,25.3,8,25.4,7.1z M23.4,9.5l-0.8,5.4l-0.8,5.4L23.4,9.5z M18.1,14.2C18.1,14.2,18.1,14.2,18.1,14.2
					C18.1,14.2,18.1,14.2,18.1,14.2L18.1,14.2z M18.5,8.8l-1.5,10.7l0.8-5.4L18.5,8.8z"/>
			</g>
			<g>
				<path class="st3" d="M25.7,6.7c0,0-1.9-0.3-4.1-0.6l-4.1-0.6l-1.2,8.2l-1.2,8.2l4.1,0.6l4.1,0.6l1.2-8.2
					C25.2,10.5,25.7,6.8,25.7,6.7z M21.9,20.1c-0.4,0-0.7,0.2-1,0.5c-0.1,0.1-0.2,0.2-0.2,0.4c0,0.1-0.1,0.2-0.1,0.2
					c-0.1,0-2.4-0.3-2.4-0.3c0,0,0-0.1,0-0.2c0-0.2-0.1-0.6-0.3-0.8c-0.2-0.2-0.4-0.3-0.6-0.4l-0.2,0l0.8-5.4l0.8-5.4l0.2,0
					c0.1,0,0.3,0,0.4-0.1c0.3-0.1,0.7-0.5,0.8-0.8c0-0.1,0-0.2,0.1-0.2l0-0.1l1.2,0.2c1.4,0.2,1.2,0.1,1.2,0.4
					c0,0.2,0.1,0.5,0.3,0.7c0.2,0.2,0.5,0.4,0.7,0.5l0.1,0l-0.8,5.4l-0.8,5.4L21.9,20.1z"/>
			</g>
			<g>
				<path class="st3" d="M22.5,14.3c0-0.4-0.2-0.8-0.4-1.1c-0.2-0.3-0.4-0.5-0.8-0.7c-0.2-0.1-0.3-0.1-0.7-0.2
					c-0.4-0.1-0.4-0.1-0.7,0c-0.5,0.1-0.9,0.4-1.2,0.7c-0.6,0.7-0.6,1.7-0.1,2.5c0.6,0.9,1.7,1.2,2.6,0.7
					C22.1,15.9,22.5,15.1,22.5,14.3z"/>
			</g>
			<g>
				<path class="st4" d="M22.5,14.7c-0.1,0.7-0.5,1.3-1.2,1.6c-0.9,0.4-2,0.1-2.6-0.7c-0.3-0.4-0.4-1-0.3-1.5c0.1-0.4,0.2-0.7,0.4-1
					c0.3-0.4,0.7-0.6,1.2-0.7c0.2-0.1,0.3-0.1,0.7,0c0.4,0.1,0.4,0.1,0.7,0.2c0.3,0.2,0.5,0.4,0.8,0.7c0.2,0.3,0.4,0.7,0.4,1.1
					C22.5,14.5,22.5,14.6,22.5,14.7z M23.7,9.4L23.7,9.4c-0.3,0-0.6-0.3-0.8-0.5c-0.2-0.2-0.3-0.5-0.3-0.7c0-0.3,0.1-0.3-1.2-0.4
					l-1.2-0.2l0,0.1c0,0,0,0.1-0.1,0.2c-0.1,0.3-0.4,0.6-0.8,0.8c-0.1,0-0.2,0-0.4,0.1l-0.2,0l-1.5,10.7l0.2,0
					c0.2,0.1,0.4,0.2,0.6,0.4c0.2,0.2,0.3,0.5,0.3,0.8c0,0.1,0,0.2,0,0.2c0,0,2.4,0.4,2.4,0.3c0,0,0.1-0.1,0.1-0.2
					c0-0.1,0.1-0.2,0.2-0.4c0.3-0.3,0.6-0.5,1-0.5l0.2,0L23.7,9.4z"/>
			</g>
		</g>
		<g>
			<g>
				<path class="st3" d="M16.3,6.5c-0.1-0.1-0.1-0.2-0.1-0.2c0,0-1.8,0.7-3.9,1.5L8.5,9.3l3.1,7.7l3.1,7.7l3.9-1.6l3.9-1.6L19.3,14
					C17.8,10.4,16.6,7.3,16.3,6.5z M15.7,9.6l2,5l2,5L15.7,9.6z M13.5,16.3C13.5,16.3,13.5,16.3,13.5,16.3
					C13.5,16.3,13.5,16.3,13.5,16.3L13.5,16.3z M11.1,11.4l4,10l-2-5L11.1,11.4z"/>
			</g>
			<g>
				<path class="st3" d="M16.3,6.1c0,0-1.8,0.7-3.9,1.5L8.6,9.1l3.1,7.7l3.1,7.7l3.9-1.6l3.9-1.6l-3.1-7.7
					C17.8,9.5,16.4,6.1,16.3,6.1z M19.8,19.5c-0.3,0.2-0.5,0.5-0.6,0.9c0,0.1,0,0.3,0,0.4c0,0.1,0,0.2,0,0.2c0,0.1-2.2,0.9-2.3,0.9
					c0,0-0.1-0.1-0.1-0.2c-0.1-0.2-0.4-0.4-0.6-0.5c-0.2-0.1-0.5-0.1-0.7,0l-0.2,0l-2-5l-2-5l0.2-0.1c0.1-0.1,0.2-0.2,0.3-0.2
					c0.2-0.3,0.4-0.7,0.3-1c0-0.1,0-0.2,0-0.2l0-0.1l1.1-0.5c1.3-0.5,1.1-0.5,1.3-0.2c0.1,0.2,0.3,0.4,0.6,0.5
					c0.3,0.1,0.6,0.1,0.9,0.1l0.1,0l2,5l2,5L19.8,19.5z"/>
			</g>
			<g>
				<path class="st3" d="M17.4,14.2c-0.2-0.3-0.5-0.6-0.9-0.8c-0.3-0.2-0.6-0.2-1-0.2c-0.3,0-0.3,0-0.7,0.2
					c-0.3,0.1-0.4,0.2-0.6,0.3c-0.4,0.3-0.6,0.8-0.7,1.2c-0.1,0.9,0.3,1.8,1.1,2.2c0.9,0.4,2,0.2,2.6-0.7
					C17.8,15.8,17.8,14.9,17.4,14.2z"/>
			</g>
			<g>
				<path class="st4" d="M17.5,14.5c0.3,0.6,0.2,1.4-0.2,2c-0.6,0.8-1.7,1.1-2.6,0.7c-0.5-0.2-0.8-0.6-1-1.1
					c-0.1-0.3-0.2-0.7-0.1-1.1c0.1-0.5,0.3-0.9,0.7-1.2c0.2-0.2,0.2-0.2,0.6-0.3c0.4-0.1,0.4-0.2,0.7-0.2c0.4,0,0.7,0,1,0.2
					c0.3,0.2,0.7,0.4,0.9,0.8C17.4,14.3,17.5,14.4,17.5,14.5z M15.9,9.4L15.9,9.4c-0.3,0.1-0.7,0.1-0.9,0c-0.2-0.1-0.5-0.3-0.6-0.5
					c-0.2-0.3,0-0.3-1.3,0.2L12,9.6l0,0.1c0,0,0,0.1,0,0.2c0.1,0.3-0.1,0.8-0.3,1c0,0.1-0.2,0.2-0.3,0.2l-0.2,0.1l4,10l0.2,0
					c0.2-0.1,0.5,0,0.7,0c0.2,0.1,0.5,0.3,0.6,0.5c0,0.1,0.1,0.2,0.1,0.2c0,0,2.2-0.9,2.3-0.9c0,0,0-0.1,0-0.2c0-0.1,0-0.3,0-0.4
					c0.1-0.4,0.3-0.7,0.6-0.9l0.2-0.1L15.9,9.4z"/>
			</g>
		</g>
		<g>
			<path class="st2" d="M8.7,17.7l0.6,14.8l0,0l20.3-0.8L29.1,17L8.7,17.7"/>
		</g>
		<g>
			<path class="st5" d="M10.9,19.4l0.4,11.4l0,0l16.1-0.6L27,18.7L10.9,19.4"/>
		</g>
		<g>
			<path class="st6" d="M25.3,22.4l0.1,3.5l0,0l3.9-0.1l-0.1-3.5L25.3,22.4"/>
		</g>
		<g>
			<path class="st7" d="M26.6,22.9c-0.3,0-0.5,0.1-0.7,0.4c-0.2,0.2-0.3,0.5-0.3,0.8c0,0.3,0.1,0.5,0.4,0.7c0.2,0.2,0.5,0.3,0.8,0.3
				c0.3,0,0.5-0.1,0.7-0.4c0.2-0.2,0.3-0.5,0.3-0.8c0-0.3-0.1-0.5-0.4-0.7C27.2,23,26.9,22.9,26.6,22.9"/>
		</g>
		<g>
			<path class="st8" d="M8.7,17.2L9.3,32l0,0.5l1.2,0L9.9,17.1L8.7,17.2z"/>
		</g>
		<g>
			<path class="st9" d="M25.4,24.1l0.1,1.8l0.9,0l3.1-0.1l-0.1-1.8L25.4,24.1z"/>
		</g>
	</g>
</g>
</svg>
